<svg width="541" height="488" viewBox="0 0 541 488" fill="none" xmlns="http://www.w3.org/2000/svg">
<g clip-path="url(#clip0_3_144)">
<path d="M336.133 283.578H137.97C131.25 283.57 124.808 280.896 120.056 276.142C115.305 271.387 112.632 264.941 112.624 258.217V25.3606C112.632 18.6369 115.305 12.1907 120.056 7.43634C124.808 2.68195 131.25 0.00759511 137.97 0H322.328L361.479 31.2235V258.217C361.471 264.941 358.799 271.387 354.047 276.142C349.295 280.896 342.853 283.57 336.133 283.578Z" fill="#E6E6E6"/>
<path d="M137.97 7.30079C133.185 7.30619 128.597 9.21065 125.213 12.5964C121.829 15.9821 119.926 20.5725 119.921 25.3606V258.217C119.926 263.005 121.829 267.596 125.213 270.982C128.597 274.367 133.185 276.272 137.97 276.277H336.133C340.918 276.272 345.506 274.367 348.89 270.982C352.273 267.596 354.177 263.005 354.182 258.217V34.7407L319.776 7.30079H137.97Z" fill="white"/>
<path d="M297.59 75.0093H207.37C206.815 75.0093 206.266 74.9 205.754 74.6878C205.242 74.4756 204.777 74.1645 204.385 73.7723C203.993 73.3801 203.682 72.9146 203.47 72.4022C203.258 71.8898 203.149 71.3406 203.149 70.786C203.149 70.2314 203.258 69.6823 203.47 69.1699C203.682 68.6575 203.993 68.1919 204.385 67.7998C204.777 67.4076 205.242 67.0965 205.754 66.8843C206.266 66.6721 206.815 66.5628 207.37 66.5628H297.59C298.144 66.5628 298.693 66.6721 299.205 66.8843C299.717 67.0965 300.183 67.4076 300.575 67.7998C300.967 68.1919 301.277 68.6575 301.49 69.1699C301.702 69.6823 301.811 70.2314 301.811 70.786C301.811 71.3406 301.702 71.8898 301.49 72.4022C301.277 72.9146 300.967 73.3801 300.575 73.7723C300.183 74.1645 299.717 74.4756 299.205 74.6878C298.693 74.9 298.144 75.0093 297.59 75.0093Z" fill="#D2D2D2"/>
<path d="M315.001 89.2626H207.37C206.25 89.2626 205.176 88.8177 204.385 88.0257C203.593 87.2337 203.149 86.1595 203.149 85.0394C203.149 83.9194 203.593 82.8451 204.385 82.0531C205.176 81.2611 206.25 80.8162 207.37 80.8162H315.001C316.12 80.8162 317.194 81.2611 317.986 82.0531C318.777 82.8451 319.222 83.9194 319.222 85.0394C319.222 86.1595 318.777 87.2337 317.986 88.0257C317.194 88.8177 316.12 89.2626 315.001 89.2626Z" fill="#D2D2D2"/>
<path d="M297.59 138.886H207.37C206.25 138.886 205.176 138.441 204.385 137.649C203.593 136.857 203.149 135.782 203.149 134.662C203.149 133.542 203.593 132.468 204.385 131.676C205.176 130.884 206.25 130.439 207.37 130.439H297.59C298.709 130.439 299.783 130.884 300.575 131.676C301.366 132.468 301.811 133.542 301.811 134.662C301.811 135.782 301.366 136.857 300.575 137.649C299.783 138.441 298.709 138.886 297.59 138.886Z" fill="#D2D2D2"/>
<path d="M315.001 153.139H207.37C206.25 153.139 205.176 152.694 204.385 151.902C203.593 151.11 203.149 150.036 203.149 148.916C203.149 147.796 203.593 146.721 204.385 145.929C205.176 145.137 206.25 144.692 207.37 144.692H315.001C316.12 144.692 317.194 145.137 317.986 145.929C318.777 146.721 319.222 147.796 319.222 148.916C319.222 150.036 318.777 151.11 317.986 151.902C317.194 152.694 316.12 153.139 315.001 153.139Z" fill="#D2D2D2"/>
<path d="M297.59 202.762H207.37C206.25 202.762 205.176 202.317 204.385 201.525C203.593 200.733 203.149 199.659 203.149 198.539C203.149 197.418 203.593 196.344 204.385 195.552C205.176 194.76 206.25 194.315 207.37 194.315H297.59C298.709 194.315 299.783 194.76 300.575 195.552C301.366 196.344 301.811 197.418 301.811 198.539C301.811 199.659 301.366 200.733 300.575 201.525C299.783 202.317 298.709 202.762 297.59 202.762Z" fill="#D2D2D2"/>
<path d="M315.001 217.015H207.37C206.25 217.015 205.176 216.57 204.385 215.778C203.593 214.986 203.149 213.912 203.149 212.792C203.149 211.672 203.593 210.598 204.385 209.806C205.176 209.014 206.25 208.569 207.37 208.569H315.001C316.12 208.569 317.194 209.014 317.986 209.806C318.777 210.598 319.222 211.672 319.222 212.792C319.222 213.912 318.777 214.986 317.986 215.778C317.194 216.57 316.12 217.015 315.001 217.015Z" fill="#D2D2D2"/>
<path d="M169.799 92.8395C178.039 92.8395 184.718 86.1566 184.718 77.9127C184.718 69.6689 178.039 62.986 169.799 62.986C161.56 62.986 154.881 69.6689 154.881 77.9127C154.881 86.1566 161.56 92.8395 169.799 92.8395Z" fill="#6C63FF"/>
<path d="M168.321 83.6069C167.986 83.6074 167.659 83.4988 167.39 83.2973L167.374 83.2848L163.868 80.6013C163.54 80.3496 163.326 79.9781 163.272 79.5684C163.218 79.1588 163.329 78.7444 163.58 78.4165C163.831 78.0886 164.203 77.8738 164.612 77.8196C165.021 77.7653 165.436 77.8758 165.764 78.127L168.035 79.8694L173.401 72.8645C173.525 72.7021 173.68 72.5658 173.857 72.4634C174.035 72.361 174.23 72.2945 174.433 72.2677C174.636 72.2409 174.842 72.2544 175.039 72.3073C175.237 72.3601 175.422 72.4514 175.584 72.5759L175.585 72.5763L175.551 72.6226L175.586 72.5763C175.913 72.8281 176.127 73.1996 176.181 73.6093C176.235 74.0189 176.125 74.4333 175.874 74.7615L169.562 82.9971C169.416 83.1868 169.228 83.3404 169.013 83.4458C168.798 83.5512 168.562 83.6057 168.323 83.605L168.321 83.6069Z" fill="white"/>
<path d="M171.336 156.716C179.575 156.716 186.254 150.033 186.254 141.789C186.254 133.545 179.575 126.862 171.336 126.862C163.096 126.862 156.417 133.545 156.417 141.789C156.417 150.033 163.096 156.716 171.336 156.716Z" fill="#D2D2D2"/>
<path d="M169.799 220.592C178.039 220.592 184.718 213.909 184.718 205.665C184.718 197.421 178.039 190.738 169.799 190.738C161.56 190.738 154.881 197.421 154.881 205.665C154.881 213.909 161.56 220.592 169.799 220.592Z" fill="#D2D2D2"/>
<path d="M360.717 32.2283H330.049C327.81 32.2283 325.663 31.3384 324.079 29.7544C322.496 28.1704 321.607 26.022 321.607 23.7819V1.11794C321.607 1.01871 321.635 0.92149 321.688 0.837431C321.74 0.753372 321.816 0.685875 321.905 0.642678C321.994 0.599482 322.094 0.582334 322.192 0.593205C322.291 0.604075 322.384 0.642522 322.462 0.704137L361.044 31.2866C361.13 31.3547 361.193 31.4478 361.224 31.553C361.254 31.6583 361.251 31.7704 361.215 31.874C361.179 31.9775 361.112 32.0672 361.023 32.1307C360.933 32.1942 360.826 32.2283 360.717 32.2283Z" fill="#E6E6E6"/>
<path d="M153.113 327.208L35.8704 351.934C32.4822 352.645 28.9507 351.982 26.0506 350.09C23.1505 348.199 21.1187 345.234 20.4009 341.845L0.282172 246.344C-0.428014 242.954 0.234773 239.42 2.12513 236.518C4.01548 233.617 6.97902 231.584 10.3656 230.865L127.608 206.139C130.997 205.428 134.528 206.091 137.428 207.983C140.328 209.874 142.36 212.839 143.078 216.228L163.197 311.729C163.907 315.119 163.244 318.653 161.354 321.555C159.463 324.456 156.5 326.489 153.113 327.208Z" fill="white"/>
<path d="M153.113 327.208L35.8704 351.934C32.4822 352.645 28.9507 351.982 26.0506 350.09C23.1505 348.199 21.1187 345.234 20.4009 341.845L0.282172 246.344C-0.428014 242.954 0.234773 239.42 2.12513 236.518C4.01548 233.617 6.97902 231.584 10.3656 230.865L127.608 206.139C130.997 205.428 134.528 206.091 137.428 207.983C140.328 209.874 142.36 212.839 143.078 216.228L163.197 311.729C163.907 315.119 163.244 318.653 161.354 321.555C159.463 324.456 156.5 326.489 153.113 327.208ZM10.6824 232.369C7.69428 233.003 5.07941 234.797 3.41145 237.357C1.74349 239.918 1.15866 243.035 1.78527 246.027L21.904 341.528C22.5374 344.518 24.3301 347.134 26.8891 348.803C29.448 350.472 32.564 351.057 35.5535 350.43L152.796 325.704C155.785 325.07 158.399 323.276 160.067 320.716C161.735 318.155 162.32 315.038 161.694 312.046L141.575 216.545C140.941 213.555 139.149 210.939 136.59 209.27C134.031 207.601 130.915 207.016 127.925 207.643L10.6824 232.369Z" fill="#3F3D56"/>
<path d="M120.324 237.628L61.153 250.108C60.6352 250.228 60.091 250.147 59.6306 249.881C59.1702 249.615 58.8278 249.184 58.6726 248.676C58.6017 248.41 58.5855 248.133 58.625 247.862C58.6646 247.59 58.7591 247.329 58.9027 247.095C59.0464 246.861 59.2362 246.659 59.4605 246.501C59.6849 246.342 59.9391 246.232 60.2077 246.175L120.44 233.472C122.792 234.798 122.049 237.265 120.323 237.628L120.324 237.628Z" fill="#D2D2D2"/>
<path d="M122.512 248.013L63.3406 260.492C62.8228 260.613 62.2787 260.532 61.8183 260.266C61.3579 260 61.0155 259.569 60.8603 259.061C60.7894 258.795 60.7732 258.518 60.8127 258.247C60.8523 257.975 60.9468 257.714 61.0904 257.48C61.2341 257.246 61.4239 257.044 61.6482 256.885C61.8726 256.727 62.1268 256.616 62.3954 256.56L122.628 243.857C124.98 245.183 124.236 247.649 122.511 248.013L122.512 248.013Z" fill="#D2D2D2"/>
<path d="M51.7949 269.103L33.7365 272.911C33.1468 273.035 32.532 272.92 32.0272 272.591C31.5224 272.261 31.1688 271.745 31.0439 271.155L26.5521 249.833C26.4284 249.243 26.5437 248.628 26.8727 248.123C27.2018 247.618 27.7177 247.264 28.3072 247.139L46.3656 243.33C46.9553 243.207 47.5699 243.322 48.0747 243.651C48.5794 243.981 48.9331 244.497 49.0582 245.086L53.55 266.409C53.6737 266.999 53.5584 267.614 53.2293 268.119C52.9003 268.624 52.3844 268.978 51.7949 269.103V269.103Z" fill="#D2D2D2"/>
<path d="M126.819 269.312L36.5131 288.358C35.9953 288.478 35.4512 288.397 34.9908 288.132C34.5304 287.866 34.1879 287.435 34.0328 286.926C33.9618 286.661 33.9456 286.384 33.9852 286.112C34.0248 285.841 34.1193 285.58 34.2629 285.346C34.4065 285.112 34.5963 284.909 34.8207 284.751C35.0451 284.593 35.2993 284.482 35.5679 284.426L126.936 265.156C129.287 266.482 128.544 268.949 126.819 269.312Z" fill="#D2D2D2"/>
<path d="M129.007 279.7L38.7015 298.746C38.1837 298.866 37.6396 298.785 37.1792 298.519C36.7187 298.254 36.3763 297.823 36.2211 297.314C36.1502 297.049 36.134 296.772 36.1736 296.5C36.2131 296.228 36.3076 295.968 36.4513 295.734C36.5949 295.5 36.7847 295.297 37.009 295.139C37.2334 294.981 37.4876 294.87 37.7562 294.813L129.124 275.544C131.476 276.87 130.733 279.336 129.007 279.7Z" fill="#D2D2D2"/>
<path d="M131.194 290.081L40.8884 309.127C40.3706 309.247 39.8264 309.166 39.366 308.901C38.9056 308.635 38.5632 308.204 38.408 307.695C38.3371 307.43 38.3209 307.153 38.3605 306.881C38.4 306.609 38.4945 306.349 38.6381 306.115C38.7818 305.881 38.9716 305.678 39.1959 305.52C39.4203 305.362 39.6745 305.251 39.9431 305.194L131.311 285.925C133.663 287.251 132.919 289.718 131.194 290.081Z" fill="#D2D2D2"/>
<path d="M133.382 300.468L43.0766 319.514C42.5588 319.634 42.0147 319.553 41.5542 319.288C41.0938 319.022 40.7514 318.591 40.5963 318.082C40.5253 317.817 40.5091 317.54 40.5487 317.268C40.5882 316.997 40.6827 316.736 40.8264 316.502C40.97 316.268 41.1598 316.065 41.3842 315.907C41.6085 315.749 41.8628 315.638 42.1313 315.582L133.499 296.312C135.851 297.638 135.108 300.105 133.382 300.468Z" fill="#D2D2D2"/>
<path d="M135.569 310.85L45.2637 329.896C44.7459 330.016 44.2018 329.935 43.7413 329.669C43.2809 329.404 42.9385 328.973 42.7833 328.464C42.7124 328.199 42.6962 327.922 42.7358 327.65C42.7753 327.378 42.8698 327.118 43.0135 326.884C43.1571 326.65 43.3469 326.447 43.5712 326.289C43.7956 326.131 44.0498 326.02 44.3184 325.963L135.686 306.694C138.038 308.02 137.295 310.486 135.569 310.85Z" fill="#D2D2D2"/>
<path d="M151.51 263.305C151.305 263.678 151.13 264.066 150.985 264.466L114.016 273.645L107.584 266.988L96.2744 275.386L106.515 288.279C107.343 289.32 108.485 290.065 109.772 290.402C111.058 290.738 112.419 290.648 113.65 290.145L153.766 273.743C155.084 274.714 156.667 275.261 158.304 275.31C159.94 275.359 161.553 274.908 162.927 274.018C164.301 273.128 165.372 271.84 165.997 270.326C166.622 268.812 166.772 267.143 166.426 265.542C166.08 263.941 165.255 262.483 164.06 261.362C162.866 260.241 161.359 259.511 159.74 259.268C158.121 259.026 156.466 259.282 154.996 260.003C153.526 260.724 152.31 261.876 151.51 263.305L151.51 263.305Z" fill="#A0616A"/>
<path d="M25.3189 344.992C26.4714 344.635 27.5319 344.031 28.4256 343.22C29.3194 342.41 30.0246 341.413 30.4917 340.3C30.9588 339.187 31.1763 337.985 31.129 336.779C31.0816 335.573 30.7706 334.392 30.2178 333.32L55.6595 262.566L37.9911 259.433L18.5385 329.967C16.7989 331.015 15.5043 332.666 14.8998 334.606C14.2954 336.546 14.4231 338.641 15.2589 340.493C16.0947 342.345 17.5804 343.825 19.4345 344.655C21.2886 345.484 23.3823 345.604 25.3189 344.992Z" fill="#A0616A"/>
<path d="M52.4284 275.125L34.9835 268.426C34.4872 268.236 34.0377 267.94 33.6658 267.56C33.2938 267.18 33.0081 266.724 32.8281 266.224C32.6481 265.723 32.578 265.19 32.6226 264.66C32.6672 264.13 32.8255 263.615 33.0866 263.152L42.2382 246.917C43.2274 244.382 45.181 242.343 47.6705 241.246C50.16 240.15 52.9824 240.086 55.5189 241.069C58.0554 242.051 60.099 244 61.2017 246.488C62.3045 248.976 62.3763 251.8 61.4015 254.34L57.3649 272.475C57.2492 272.994 57.023 273.482 56.7017 273.906C56.3804 274.33 55.9716 274.68 55.5031 274.931C55.0347 275.183 54.5175 275.33 53.9869 275.364C53.4563 275.397 52.9247 275.316 52.4284 275.125V275.125Z" fill="#6C63FF"/>
<path d="M91.8037 477.83L101.22 477.829L105.7 441.488L91.8021 441.489L91.8037 477.83Z" fill="#A0616A"/>
<path d="M89.4016 474.754L107.946 474.753H107.946C109.498 474.753 111.035 475.059 112.469 475.653C113.903 476.247 115.206 477.118 116.303 478.216C117.4 479.314 118.271 480.618 118.865 482.052C119.459 483.487 119.764 485.024 119.764 486.577V486.961L89.4021 486.963L89.4016 474.754Z" fill="#2F2E41"/>
<path d="M38.8068 477.83L48.2233 477.829L52.7027 441.488L38.8052 441.489L38.8068 477.83Z" fill="#A0616A"/>
<path d="M36.4047 474.754L54.9488 474.753H54.9496C56.5015 474.753 58.0383 475.059 59.4721 475.653C60.9059 476.247 62.2087 477.118 63.3061 478.216C64.4035 479.314 65.274 480.618 65.8679 482.052C66.4618 483.487 66.7675 485.024 66.7675 486.577V486.961L36.4052 486.963L36.4047 474.754Z" fill="#2F2E41"/>
<path d="M48.6782 463.203H36.7619C36.2942 463.203 35.8313 463.108 35.4014 462.923C34.9715 462.739 34.5834 462.47 34.2606 462.131C33.9378 461.792 33.6871 461.391 33.5237 460.953C33.3602 460.515 33.2873 460.047 33.3095 459.58L38.9697 337.901L39.3264 337.892L96.8696 336.391L108.13 458.139C108.173 458.596 108.125 459.056 107.989 459.494C107.853 459.931 107.631 460.338 107.337 460.689C107.042 461.04 106.681 461.329 106.274 461.539C105.866 461.75 105.421 461.877 104.965 461.913L91.5801 462.984C90.7393 463.051 89.903 462.808 89.2286 462.301C88.5543 461.794 88.0884 461.058 87.9187 460.232L70.7981 373.562C70.7514 373.299 70.6119 373.061 70.4048 372.892C70.1978 372.723 69.937 372.634 69.6698 372.641H69.6651C69.397 372.635 69.1358 372.726 68.929 372.896C68.7222 373.067 68.5838 373.307 68.5389 373.571L52.0695 460.412C51.9135 461.198 51.4904 461.905 50.8722 462.414C50.2539 462.923 49.4787 463.201 48.6782 463.203Z" fill="#2F2E41"/>
<path d="M70.5066 229.379C80.9252 229.379 89.3712 220.929 89.3712 210.504C89.3712 200.08 80.9252 191.629 70.5066 191.629C60.0879 191.629 51.642 200.08 51.642 210.504C51.642 220.929 60.0879 229.379 70.5066 229.379Z" fill="#A0616A"/>
<path d="M64.1811 352.161C55.1898 352.161 45.9546 349.796 38.2986 342.804C37.8912 342.435 37.5767 341.974 37.3806 341.46C37.1845 340.946 37.1123 340.393 37.17 339.846C37.9894 332.479 41.9644 294.442 39.7258 269.033C39.289 264.287 39.9605 259.505 41.6874 255.063C43.4143 250.621 46.1494 246.641 49.6766 243.438C53.1422 240.243 57.3025 237.896 61.8295 236.585C66.3564 235.273 71.126 235.032 75.762 235.881H75.7622C75.9971 235.923 76.2319 235.967 76.467 236.012C91.5701 238.937 102.064 252.922 100.876 268.544C99.1437 291.338 97.5905 322.17 100.029 339.606C100.13 340.319 100.006 341.046 99.6733 341.685C99.3407 342.324 98.8167 342.843 98.1746 343.169C92.6254 345.974 78.7223 352.161 64.1811 352.161Z" fill="#6C63FF"/>
<path d="M88.7971 276.483C88.3545 276.189 87.9806 275.802 87.701 275.35C87.4214 274.897 87.2426 274.39 87.1769 273.862L84.8786 255.425C84.149 252.804 84.4883 249.999 85.822 247.627C87.1557 245.255 89.375 243.509 91.9933 242.772C94.6117 242.035 97.4154 242.366 99.7898 243.694C102.164 245.022 103.915 247.238 104.66 249.855L112.23 266.886C112.446 267.372 112.555 267.899 112.549 268.431C112.543 268.963 112.423 269.487 112.196 269.969C111.969 270.45 111.642 270.876 111.235 271.22C110.829 271.563 110.353 271.814 109.841 271.957L91.8398 276.969C91.3276 277.112 90.7906 277.142 90.2655 277.058C89.7404 276.975 89.2395 276.779 88.7971 276.483Z" fill="#6C63FF"/>
<path d="M63.9211 229.113C62.1355 229.146 60.3611 228.825 58.7004 228.168C57.9696 227.886 57.2111 227.654 56.4817 227.372C50.0402 224.882 45.7969 218.018 45.6449 211.11C45.4929 204.203 49.0682 197.498 54.3772 193.08C59.6862 188.661 66.5627 186.393 73.4483 185.868C80.8653 185.303 89.217 187.185 93.3615 193.365C94.4647 195.01 95.2363 197.006 94.5826 198.993C94.3868 199.592 94.0371 200.129 93.5685 200.551C91.7176 202.199 89.8724 200.96 87.9855 200.85C85.3921 200.7 83.0628 202.8 82.2256 205.261C81.3884 207.721 81.7569 210.43 82.4329 212.94C82.9479 214.45 83.2725 216.019 83.3993 217.609C83.4539 218.407 83.304 219.205 82.9638 219.929C82.6236 220.652 82.1044 221.276 81.4554 221.743C79.8348 222.723 77.7066 222.156 76.0851 221.177C74.4636 220.199 73.0625 218.838 71.3109 218.118C69.5594 217.398 67.2062 217.558 66.1868 219.154C65.8628 219.735 65.6435 220.369 65.5389 221.026C64.625 225.192 64.835 224.947 63.9211 229.113V229.113Z" fill="#2F2E41"/>
<path d="M147.214 488H1.28101C1.07731 488 0.881943 487.919 0.737902 487.775C0.59386 487.631 0.512939 487.435 0.512939 487.231C0.512939 487.028 0.59386 486.832 0.737902 486.688C0.881943 486.544 1.07731 486.463 1.28101 486.463H147.214C147.418 486.463 147.614 486.544 147.758 486.688C147.902 486.832 147.983 487.028 147.983 487.231C147.983 487.435 147.902 487.631 147.758 487.775C147.614 487.919 147.418 488 147.214 488Z" fill="#D2D2D2"/>
<path d="M520.761 329.403L416.259 388.054C413.238 389.745 409.67 390.168 406.338 389.23C403.005 388.292 400.181 386.07 398.484 383.051L350.763 297.927C349.073 294.905 348.65 291.334 349.588 288C350.525 284.666 352.746 281.839 355.764 280.142L460.265 221.491C463.286 219.8 466.855 219.377 470.187 220.315C473.52 221.253 476.344 223.475 478.041 226.494L525.762 311.618C527.452 314.64 527.874 318.211 526.937 321.545C526 324.879 523.779 327.705 520.761 329.403Z" fill="white"/>
<path d="M520.761 329.403L416.259 388.054C413.238 389.745 409.67 390.168 406.338 389.23C403.005 388.292 400.181 386.07 398.484 383.051L350.763 297.927C349.073 294.905 348.65 291.334 349.588 288C350.525 284.666 352.746 281.839 355.764 280.142L460.265 221.491C463.286 219.8 466.855 219.377 470.187 220.315C473.52 221.253 476.344 223.475 478.041 226.494L525.762 311.618C527.452 314.64 527.874 318.211 526.937 321.545C526 324.879 523.779 327.705 520.761 329.403ZM356.515 281.482C353.853 282.98 351.893 285.474 351.066 288.416C350.239 291.358 350.612 294.508 352.103 297.175L399.823 382.299C401.321 384.962 403.813 386.923 406.753 387.751C409.694 388.578 412.842 388.205 415.508 386.713L520.01 328.063C522.672 326.565 524.632 324.071 525.459 321.129C526.286 318.187 525.913 315.037 524.422 312.37L476.701 227.246C475.204 224.582 472.712 222.622 469.771 221.794C466.831 220.966 463.683 221.34 461.017 222.832L356.515 281.482Z" fill="#3F3D56"/>
<path d="M462.718 253.72L409.977 283.32C409.519 283.59 408.975 283.675 408.457 283.559C407.938 283.443 407.482 283.134 407.182 282.695C407.036 282.463 406.937 282.204 406.894 281.933C406.851 281.662 406.863 281.384 406.93 281.118C406.997 280.852 407.118 280.602 407.285 280.384C407.452 280.166 407.661 279.984 407.901 279.85L461.587 249.719C464.228 250.281 464.255 252.857 462.717 253.72L462.718 253.72Z" fill="#D2D2D2"/>
<path d="M467.907 262.976L415.166 292.576C414.708 292.846 414.164 292.931 413.646 292.815C413.127 292.699 412.672 292.391 412.372 291.952C412.225 291.72 412.126 291.46 412.083 291.189C412.04 290.918 412.052 290.641 412.119 290.374C412.186 290.108 412.307 289.858 412.474 289.64C412.641 289.422 412.85 289.241 413.09 289.106L466.776 258.975C469.417 259.538 469.444 262.114 467.906 262.977L467.907 262.976Z" fill="#D2D2D2"/>
<path d="M406.719 304.246L390.623 313.279C390.098 313.574 389.476 313.647 388.896 313.484C388.316 313.321 387.825 312.934 387.529 312.408L376.875 293.403C376.581 292.877 376.507 292.255 376.67 291.675C376.833 291.095 377.22 290.603 377.745 290.307L393.841 281.274C394.367 280.979 394.988 280.906 395.568 281.069C396.148 281.232 396.64 281.619 396.935 282.144L407.59 301.15C407.884 301.676 407.958 302.297 407.794 302.878C407.631 303.458 407.245 303.95 406.719 304.246L406.719 304.246Z" fill="#D2D2D2"/>
<path d="M478.378 282.015L397.886 327.19C397.428 327.459 396.885 327.545 396.366 327.429C395.847 327.313 395.392 327.004 395.092 326.565C394.945 326.333 394.847 326.074 394.803 325.802C394.76 325.531 394.772 325.254 394.839 324.988C394.906 324.722 395.027 324.472 395.194 324.254C395.361 324.036 395.57 323.854 395.81 323.72L477.248 278.013C479.889 278.576 479.916 281.152 478.378 282.015Z" fill="#D2D2D2"/>
<path d="M483.569 291.274L403.077 336.449C402.619 336.718 402.075 336.804 401.556 336.688C401.038 336.572 400.582 336.263 400.282 335.824C400.135 335.592 400.037 335.333 399.994 335.061C399.95 334.79 399.963 334.513 400.03 334.247C400.097 333.981 400.218 333.731 400.385 333.513C400.551 333.295 400.761 333.113 401 332.979L482.439 287.272C485.079 287.835 485.107 290.411 483.569 291.274V291.274Z" fill="#D2D2D2"/>
<path d="M488.756 300.527L408.264 345.702C407.806 345.971 407.262 346.057 406.744 345.941C406.225 345.825 405.769 345.516 405.469 345.077C405.323 344.845 405.224 344.586 405.181 344.314C405.138 344.043 405.15 343.766 405.217 343.5C405.284 343.234 405.405 342.984 405.572 342.766C405.739 342.548 405.948 342.366 406.188 342.232L487.626 296.525C490.267 297.088 490.294 299.664 488.756 300.527Z" fill="#D2D2D2"/>
<path d="M493.946 309.785L413.454 354.96C412.996 355.23 412.453 355.315 411.934 355.199C411.415 355.083 410.96 354.774 410.66 354.335C410.513 354.103 410.415 353.844 410.371 353.573C410.328 353.302 410.34 353.024 410.407 352.758C410.474 352.492 410.595 352.242 410.762 352.024C410.929 351.806 411.138 351.624 411.378 351.49L492.817 305.783C495.457 306.346 495.484 308.922 493.946 309.785H493.946Z" fill="#D2D2D2"/>
<path d="M499.134 319.039L418.642 364.214C418.184 364.483 417.64 364.569 417.122 364.453C416.603 364.337 416.147 364.028 415.847 363.589C415.7 363.357 415.602 363.098 415.559 362.826C415.515 362.555 415.528 362.278 415.595 362.012C415.662 361.745 415.783 361.496 415.95 361.278C416.117 361.06 416.326 360.878 416.565 360.744L498.004 315.037C500.645 315.6 500.672 318.176 499.134 319.039V319.039Z" fill="#D2D2D2"/>
<path d="M485.091 353.716C485.53 352.749 485.751 351.697 485.739 350.635C485.727 349.573 485.482 348.526 485.022 347.569C484.562 346.612 483.898 345.767 483.077 345.094C482.255 344.421 481.297 343.937 480.268 343.675L478.079 317.95L467.551 326.26L471.244 349.415C470.919 351.173 471.25 352.99 472.174 354.521C473.098 356.051 474.551 357.189 476.258 357.719C477.965 358.25 479.807 358.135 481.435 357.397C483.063 356.659 484.364 355.349 485.091 353.716Z" fill="#FFB8B8"/>
<path d="M478.278 340.981L469.535 342.024C469.09 342.077 468.64 342.038 468.212 341.909C467.784 341.779 467.387 341.563 467.046 341.273C466.705 340.983 466.427 340.626 466.231 340.224C466.034 339.822 465.923 339.384 465.904 338.937L464.629 309.424L448.056 264.124C447.391 262.718 447.089 261.169 447.175 259.617C447.261 258.064 447.733 256.558 448.548 255.234C448.954 254.595 449.419 253.995 449.937 253.441C450.957 252.342 452.227 251.506 453.64 251.005C455.052 250.503 456.565 250.35 458.049 250.559C459.578 250.763 461.037 251.329 462.304 252.209C463.571 253.09 464.609 254.26 465.333 255.623L476.141 278.284C480.662 287.762 482.796 298.203 482.358 308.696L481.139 337.89C481.107 338.654 480.807 339.382 480.292 339.946C479.776 340.511 479.078 340.875 478.321 340.975L478.278 340.981Z" fill="#6C63FF"/>
<path d="M509.328 468.529L501.221 472.089L483.64 442.499L495.604 437.245L509.328 468.529Z" fill="#FFB8B8"/>
<path d="M514.844 475.483L488.707 486.963L488.562 486.632C487.975 485.295 487.658 483.856 487.627 482.396C487.597 480.937 487.854 479.485 488.384 478.125C488.914 476.765 489.706 475.523 490.716 474.469C491.726 473.416 492.933 472.571 494.269 471.984L494.27 471.984L510.234 464.973L514.844 475.483Z" fill="#2F2E41"/>
<path d="M400.501 478.376H391.648L387.436 444.211L400.502 444.211L400.501 478.376Z" fill="#FFB8B8"/>
<path d="M402.758 486.963L374.213 486.962V486.6C374.213 485.14 374.501 483.695 375.059 482.346C375.617 480.997 376.436 479.772 377.467 478.74C378.499 477.707 379.724 476.889 381.072 476.33C382.42 475.771 383.865 475.484 385.324 475.484H385.324L402.758 475.484L402.758 486.963Z" fill="#2F2E41"/>
<path d="M486.69 466.696L437.375 356.583C437.286 356.376 437.135 356.203 436.943 356.086C436.751 355.969 436.527 355.915 436.303 355.931C436.079 355.947 435.866 356.032 435.692 356.175C435.519 356.317 435.394 356.511 435.335 356.728L405.287 463.084C405.089 463.828 404.632 464.477 403.997 464.914C403.363 465.351 402.594 465.547 401.828 465.467L385.418 463.825C384.573 463.736 383.795 463.321 383.25 462.668C382.706 462.015 382.437 461.175 382.501 460.327C387.72 395.37 395.949 334.063 420.598 293.93L420.729 293.717L458.014 301.032L507.792 459.631C508.038 460.448 507.954 461.329 507.559 462.085C507.164 462.841 506.489 463.412 505.678 463.677L490.668 468.504C489.899 468.754 489.064 468.707 488.328 468.373C487.592 468.038 487.008 467.44 486.69 466.696Z" fill="#2F2E41"/>
<path d="M438.751 237.525C448.545 237.525 456.486 229.58 456.486 219.779C456.486 209.979 448.545 202.034 438.751 202.034C428.956 202.034 421.015 209.979 421.015 219.779C421.015 229.58 428.956 237.525 438.751 237.525Z" fill="#FFB8B8"/>
<path d="M418.307 297.002L418.08 296.956L418.027 296.731C415.638 286.637 415.581 275.62 417.858 263.989C419.013 258.044 422.227 252.698 426.935 248.892C431.643 245.086 437.542 243.064 443.594 243.182C450.16 243.315 456.427 245.954 461.113 250.559C465.799 255.163 468.549 261.385 468.801 267.952C469.561 287.957 461.39 305.301 461.307 305.474L461.186 305.728L418.307 297.002Z" fill="#6C63FF"/>
<path d="M370.763 330.762C371.813 330.607 372.817 330.223 373.703 329.637C374.588 329.052 375.335 328.28 375.89 327.374C376.446 326.469 376.796 325.453 376.916 324.398C377.036 323.343 376.924 322.274 376.587 321.267L397.014 305.492L384.331 301.138L366.877 316.785C365.224 317.464 363.877 318.726 363.091 320.333C362.306 321.939 362.137 323.778 362.616 325.501C363.095 327.223 364.189 328.711 365.69 329.68C367.192 330.65 368.997 331.035 370.763 330.762V330.762Z" fill="#FFB8B8"/>
<path d="M381.921 318.866C381.256 319.259 380.472 319.401 379.711 319.267C378.95 319.133 378.263 318.731 377.772 318.133L372.16 311.345C371.875 311 371.664 310.6 371.541 310.169C371.418 309.739 371.384 309.288 371.443 308.844C371.502 308.401 371.652 307.974 371.884 307.591C372.115 307.208 372.423 306.877 372.788 306.618L396.893 289.562L425.976 251.087C426.797 249.767 427.935 248.673 429.286 247.905C430.637 247.136 432.158 246.718 433.712 246.687C434.469 246.682 435.225 246.748 435.97 246.884C437.446 247.146 438.836 247.762 440.023 248.678C441.21 249.595 442.157 250.785 442.785 252.147C443.442 253.543 443.757 255.076 443.703 256.618C443.649 258.161 443.228 259.668 442.475 261.015L420.94 295.911L420.893 295.987L381.921 318.866Z" fill="#6C63FF"/>
<path d="M441.922 218.678C440.615 216.527 437.73 215.919 435.226 216.164C432.722 216.41 430.286 217.291 427.77 217.271C420.783 217.217 415.39 208.696 418.327 202.353C420.736 197.151 426.753 194.867 432.196 193.074C443.608 189.315 456.717 185.703 467.073 191.798C470.373 193.798 473.079 196.643 474.913 200.039C476.747 203.436 477.641 207.26 477.503 211.118C477.27 215.915 475.434 220.842 476.987 225.386C478.778 230.629 484.458 233.441 489.826 234.802C499.235 237.187 509.156 236.803 518.624 238.942C528.092 241.081 537.794 246.761 540.347 256.132C542.023 262.286 540.274 268.912 537.377 274.595C534.421 280.393 530.314 285.526 525.306 289.68C520.299 293.834 514.496 296.921 508.255 298.753C502.013 300.585 495.463 301.123 489.006 300.333C482.549 299.544 476.322 297.444 470.704 294.162C459.258 287.474 450.994 276.172 446.067 263.86C443.274 256.678 441.308 249.201 440.206 241.574C439.103 234.434 440.039 227.218 442.037 220.276C442.132 220.016 442.17 219.74 442.151 219.465C442.131 219.189 442.053 218.921 441.922 218.678Z" fill="#2F2E41"/>
<path d="M505.903 488H359.97C359.766 488 359.571 487.919 359.427 487.775C359.283 487.631 359.202 487.435 359.202 487.231C359.202 487.028 359.283 486.832 359.427 486.688C359.571 486.544 359.766 486.463 359.97 486.463H505.903C506.107 486.463 506.302 486.544 506.446 486.688C506.591 486.832 506.671 487.028 506.671 487.231C506.671 487.435 506.591 487.631 506.446 487.775C506.302 487.919 506.107 488 505.903 488Z" fill="#D2D2D2"/>
</g>
<defs>
<clipPath id="clip0_3_144">
<rect width="541" height="488" fill="white"/>
</clipPath>
</defs>
</svg>
